<mxfile host="Electron" modified="2023-10-23T05:36:39.032Z" agent="Mozilla/5.0 (Windows NT 10.0; Win64; x64) AppleWebKit/537.36 (KHTML, like Gecko) draw.io/22.0.2 Chrome/114.0.5735.289 Electron/25.8.4 Safari/537.36" etag="ubGRMd52pr5CaFdU-9T-" version="22.0.2" type="device">
  <diagram name="Page-1" id="8RWkLqyZKl_GUs2LjY9h">
    <mxGraphModel dx="2345" dy="1216" grid="1" gridSize="10" guides="1" tooltips="1" connect="1" arrows="1" fold="1" page="1" pageScale="1" pageWidth="827" pageHeight="1169" math="0" shadow="0">
      <root>
        <mxCell id="0" />
        <mxCell id="1" parent="0" />
        <mxCell id="1-X1V24veuv_iXKHL1sz-2" value="" style="sketch=0;pointerEvents=1;shadow=0;dashed=0;html=1;strokeColor=none;fillColor=#DF8C42;labelPosition=center;verticalLabelPosition=bottom;verticalAlign=top;align=center;outlineConnect=0;shape=mxgraph.veeam2.oracle_db;movable=0;resizable=0;rotatable=0;deletable=0;editable=0;locked=1;connectable=0;" parent="1" vertex="1">
          <mxGeometry x="740" y="220" width="80" height="70" as="geometry" />
        </mxCell>
        <mxCell id="1-X1V24veuv_iXKHL1sz-18" style="edgeStyle=orthogonalEdgeStyle;rounded=0;orthogonalLoop=1;jettySize=auto;html=1;exitX=1;exitY=0.5;exitDx=0;exitDy=0;movable=0;resizable=0;rotatable=0;deletable=0;editable=0;locked=1;connectable=0;" parent="1" source="1-X1V24veuv_iXKHL1sz-1" target="1-X1V24veuv_iXKHL1sz-2" edge="1">
          <mxGeometry relative="1" as="geometry" />
        </mxCell>
        <mxCell id="1-X1V24veuv_iXKHL1sz-7" value="" style="group;movable=0;resizable=0;rotatable=0;deletable=0;editable=0;locked=1;connectable=0;" parent="1" vertex="1" connectable="0">
          <mxGeometry x="550" y="330" width="82.20000000000005" height="100" as="geometry" />
        </mxCell>
        <object label="" placeholders="1" UpiMicroService="UPI and Account mana" id="1-X1V24veuv_iXKHL1sz-1">
          <mxCell style="image;aspect=fixed;perimeter=ellipsePerimeter;html=1;align=center;shadow=0;dashed=0;fontColor=#4277BB;labelBackgroundColor=default;fontSize=12;spacingTop=3;image=img/lib/ibm/applications/microservice.svg;imageBackground=none;movable=0;resizable=0;rotatable=0;deletable=0;editable=0;locked=1;connectable=0;" parent="1-X1V24veuv_iXKHL1sz-7" vertex="1">
            <mxGeometry width="82.2" height="60" as="geometry" />
          </mxCell>
        </object>
        <mxCell id="1-X1V24veuv_iXKHL1sz-6" value="UPIAccount&lt;br&gt;Microservice" style="text;html=1;strokeColor=none;fillColor=none;align=center;verticalAlign=middle;whiteSpace=wrap;rounded=0;movable=0;resizable=0;rotatable=0;deletable=0;editable=0;locked=1;connectable=0;" parent="1-X1V24veuv_iXKHL1sz-7" vertex="1">
          <mxGeometry x="11.100000000000023" y="70" width="60" height="30" as="geometry" />
        </mxCell>
        <object label="" Port="8082&#xa;8082" id="1-X1V24veuv_iXKHL1sz-17">
          <mxCell style="group;movable=0;resizable=0;rotatable=0;deletable=0;editable=0;locked=1;connectable=0;" parent="1" vertex="1" connectable="0">
            <mxGeometry x="560" y="530" width="82.2" height="110" as="geometry" />
          </mxCell>
        </object>
        <mxCell id="1-X1V24veuv_iXKHL1sz-4" value="" style="image;aspect=fixed;perimeter=ellipsePerimeter;html=1;align=center;shadow=0;dashed=0;fontColor=#4277BB;labelBackgroundColor=default;fontSize=12;spacingTop=3;image=img/lib/ibm/applications/microservice.svg;movable=0;resizable=0;rotatable=0;deletable=0;editable=0;locked=1;connectable=0;" parent="1-X1V24veuv_iXKHL1sz-17" vertex="1">
          <mxGeometry width="82.19999999999996" height="59.999999999999964" as="geometry" />
        </mxCell>
        <mxCell id="1-X1V24veuv_iXKHL1sz-16" value="BankAccount&lt;br&gt;Microservice" style="text;html=1;strokeColor=none;fillColor=none;align=center;verticalAlign=middle;whiteSpace=wrap;rounded=0;movable=0;resizable=0;rotatable=0;deletable=0;editable=0;locked=1;connectable=0;" parent="1-X1V24veuv_iXKHL1sz-17" vertex="1">
          <mxGeometry x="11.100000000000017" y="80" width="59.999999999999964" height="30" as="geometry" />
        </mxCell>
        <mxCell id="1-X1V24veuv_iXKHL1sz-19" value="" style="outlineConnect=0;dashed=0;verticalLabelPosition=bottom;verticalAlign=top;align=center;html=1;shape=mxgraph.aws3.mysql_db_instance;fillColor=#2E73B8;gradientColor=none;movable=0;resizable=0;rotatable=0;deletable=0;editable=0;locked=1;connectable=0;" parent="1" vertex="1">
          <mxGeometry x="760" y="430" width="60" height="64.5" as="geometry" />
        </mxCell>
        <mxCell id="1-X1V24veuv_iXKHL1sz-24" style="edgeStyle=orthogonalEdgeStyle;rounded=0;orthogonalLoop=1;jettySize=auto;html=1;exitX=1;exitY=0.5;exitDx=0;exitDy=0;entryX=0.5;entryY=0.975;entryDx=0;entryDy=0;entryPerimeter=0;movable=0;resizable=0;rotatable=0;deletable=0;editable=0;locked=1;connectable=0;" parent="1" source="1-X1V24veuv_iXKHL1sz-4" target="1-X1V24veuv_iXKHL1sz-19" edge="1">
          <mxGeometry relative="1" as="geometry" />
        </mxCell>
        <mxCell id="izn5pz2SDdwjP5dMOEnq-3" value="" style="group;movable=0;resizable=0;rotatable=0;deletable=0;editable=0;locked=1;connectable=0;" vertex="1" connectable="0" parent="1">
          <mxGeometry x="30" y="440" width="82.2" height="120" as="geometry" />
        </mxCell>
        <mxCell id="izn5pz2SDdwjP5dMOEnq-1" value="" style="image;aspect=fixed;perimeter=ellipsePerimeter;html=1;align=center;shadow=0;dashed=0;fontColor=#4277BB;labelBackgroundColor=default;fontSize=12;spacingTop=3;image=img/lib/ibm/applications/microservice.svg;movable=0;resizable=0;rotatable=0;deletable=0;editable=0;locked=1;connectable=0;" vertex="1" parent="izn5pz2SDdwjP5dMOEnq-3">
          <mxGeometry width="82.2" height="60" as="geometry" />
        </mxCell>
        <mxCell id="izn5pz2SDdwjP5dMOEnq-2" value="Root/&lt;br&gt;Initializer" style="text;html=1;strokeColor=none;fillColor=none;align=center;verticalAlign=middle;whiteSpace=wrap;rounded=0;movable=0;resizable=0;rotatable=0;deletable=0;editable=0;locked=1;connectable=0;" vertex="1" parent="izn5pz2SDdwjP5dMOEnq-3">
          <mxGeometry x="11.100000000000023" y="80" width="60" height="30" as="geometry" />
        </mxCell>
        <mxCell id="izn5pz2SDdwjP5dMOEnq-10" style="edgeStyle=orthogonalEdgeStyle;rounded=0;orthogonalLoop=1;jettySize=auto;html=1;entryX=0;entryY=0.25;entryDx=0;entryDy=0;exitX=1;exitY=0.5;exitDx=0;exitDy=0;movable=0;resizable=0;rotatable=0;deletable=0;editable=0;locked=1;connectable=0;" edge="1" parent="1" source="izn5pz2SDdwjP5dMOEnq-9" target="1-X1V24veuv_iXKHL1sz-17">
          <mxGeometry relative="1" as="geometry">
            <mxPoint x="360" y="520" as="sourcePoint" />
            <mxPoint x="450" y="640" as="targetPoint" />
            <Array as="points">
              <mxPoint x="400" y="510" />
              <mxPoint x="400" y="557" />
            </Array>
          </mxGeometry>
        </mxCell>
        <mxCell id="izn5pz2SDdwjP5dMOEnq-11" style="edgeStyle=orthogonalEdgeStyle;rounded=0;orthogonalLoop=1;jettySize=auto;html=1;exitX=1;exitY=0.5;exitDx=0;exitDy=0;entryX=0;entryY=0.5;entryDx=0;entryDy=0;movable=0;resizable=0;rotatable=0;deletable=0;editable=0;locked=1;connectable=0;" edge="1" parent="1" source="izn5pz2SDdwjP5dMOEnq-9" target="1-X1V24veuv_iXKHL1sz-1">
          <mxGeometry relative="1" as="geometry">
            <Array as="points">
              <mxPoint x="400" y="510" />
              <mxPoint x="400" y="360" />
            </Array>
          </mxGeometry>
        </mxCell>
        <mxCell id="izn5pz2SDdwjP5dMOEnq-12" value="" style="group;movable=0;resizable=0;rotatable=0;deletable=0;editable=0;locked=1;connectable=0;" vertex="1" connectable="0" parent="1">
          <mxGeometry x="250" y="420" width="100" height="185" as="geometry" />
        </mxCell>
        <mxCell id="izn5pz2SDdwjP5dMOEnq-9" value="" style="rounded=0;whiteSpace=wrap;html=1;container=0;movable=0;resizable=0;rotatable=0;deletable=0;editable=0;locked=1;connectable=0;" vertex="1" parent="izn5pz2SDdwjP5dMOEnq-12">
          <mxGeometry y="-5.285714285714286" width="100.00000000000001" height="190.28571428571428" as="geometry" />
        </mxCell>
        <mxCell id="izn5pz2SDdwjP5dMOEnq-4" value="" style="image;aspect=fixed;perimeter=ellipsePerimeter;html=1;align=center;shadow=0;dashed=0;fontColor=#4277BB;labelBackgroundColor=default;fontSize=12;spacingTop=3;image=img/lib/ibm/applications/microservice.svg;movable=0;resizable=0;rotatable=0;deletable=0;editable=0;locked=1;connectable=0;container=0;" vertex="1" parent="izn5pz2SDdwjP5dMOEnq-12">
          <mxGeometry y="63.42857142857143" width="83.11425682507584" height="60.66734074823054" as="geometry" />
        </mxCell>
        <mxCell id="izn5pz2SDdwjP5dMOEnq-5" value="" style="image;aspect=fixed;perimeter=ellipsePerimeter;html=1;align=center;shadow=0;dashed=0;fontColor=#4277BB;labelBackgroundColor=default;fontSize=12;spacingTop=3;image=img/lib/ibm/applications/microservice.svg;movable=0;resizable=0;rotatable=0;deletable=0;editable=0;locked=1;connectable=0;container=0;" vertex="1" parent="izn5pz2SDdwjP5dMOEnq-12">
          <mxGeometry width="83.11425682507584" height="60.66734074823054" as="geometry" />
        </mxCell>
        <mxCell id="izn5pz2SDdwjP5dMOEnq-6" value="Controller&lt;br&gt;Service(bcp)" style="text;html=1;strokeColor=none;fillColor=none;align=center;verticalAlign=middle;whiteSpace=wrap;rounded=0;movable=0;resizable=0;rotatable=0;deletable=0;editable=0;locked=1;connectable=0;container=0;" vertex="1" parent="izn5pz2SDdwjP5dMOEnq-12">
          <mxGeometry x="11.223458038422672" y="148" width="60.66734074823054" height="31.714285714285715" as="geometry" />
        </mxCell>
      </root>
    </mxGraphModel>
  </diagram>
</mxfile>
